<svg width="16" height="16" viewBox="0 0 16 16" fill="none" xmlns="http://www.w3.org/2000/svg">
<path d="M9.3 0.479999C8.46548 0.146153 7.53452 0.146153 6.7 0.479999L0.943 2.785C0.664909 2.89621 0.426479 3.08813 0.258415 3.33604C0.0903513 3.58395 0.000349414 3.87649 2.09356e-08 4.176V11.822C-5.00639e-05 12.1218 0.0897655 12.4148 0.257855 12.6631C0.425944 12.9114 0.664593 13.1037 0.943 13.215L6.7 15.518C7.53452 15.8518 8.46548 15.8518 9.3 15.518L15.057 13.215C15.3354 13.1037 15.5741 12.9114 15.7421 12.6631C15.9102 12.4148 16.0001 12.1218 16 11.822V4.176C15.9999 3.87632 15.9099 3.58356 15.7419 3.33546C15.5738 3.08735 15.3352 2.89528 15.057 2.784L9.3 0.479999ZM7.072 1.41C7.66804 1.17158 8.33296 1.17158 8.929 1.41L14.154 3.5L11.875 4.41L5.721 1.95L7.072 1.41ZM4.375 2.487L10.529 4.948L8 5.961L1.846 3.499L4.375 2.487ZM8.5 6.837L15 4.237V11.821C15.0002 11.921 14.9703 12.0188 14.9144 12.1017C14.8584 12.1846 14.7788 12.2488 14.686 12.286L8.929 14.589C8.789 14.6443 8.646 14.687 8.5 14.717V6.837ZM7.5 6.837V14.717C7.3538 14.6872 7.21056 14.6444 7.072 14.589L1.314 12.286C1.22131 12.2489 1.14187 12.1848 1.08591 12.1021C1.02994 12.0194 1.00002 11.9219 1 11.822V4.238L7.5 6.837Z" fill="black"/>
</svg>
