<svg width="11" height="11" viewBox="0 0 11 11" fill="none" xmlns="http://www.w3.org/2000/svg">
<path d="M10.526 11L6.32149 6.79603C5.98578 7.08203 5.59971 7.30335 5.16328 7.45999C4.72685 7.61664 4.28819 7.69497 3.84728 7.69497C2.7721 7.69497 1.86209 7.32282 1.11726 6.57852C0.372419 5.83422 0 4.92455 0 3.8495C0 2.77445 0.371971 1.86433 1.11591 1.11913C1.85985 0.373941 2.76942 0.000896737 3.8446 1.60994e-06C4.91978 -0.000893518 5.83023 0.37148 6.57596 1.11712C7.3217 1.86276 7.69456 2.77288 7.69456 3.84748C7.69456 4.31384 7.61198 4.76521 7.4468 5.20159C7.28163 5.63796 7.06454 6.01123 6.79552 6.32139L11 10.5247L10.526 11ZM3.84795 7.02295C4.73871 7.02295 5.49071 6.71637 6.10395 6.1032C6.71719 5.49004 7.02381 4.73791 7.02381 3.84681C7.02381 2.95571 6.71719 2.20381 6.10395 1.59109C5.49071 0.978376 4.73871 0.671795 3.84795 0.671347C2.95719 0.6709 2.20497 0.977481 1.59128 1.59109C0.977599 2.2047 0.67098 2.95661 0.671428 3.84681C0.671875 4.73702 0.978494 5.48892 1.59128 6.10253C2.20407 6.71614 2.95607 7.02273 3.84728 7.02228" fill="white"/>
</svg>
